<svg width="640" height="420" viewBox="0 0 640 420" fill="none" xmlns="http://www.w3.org/2000/svg" role="img" aria-labelledby="title desc">
  <title id="title">Höganäs Event webbapp</title>
  <desc id="desc">Illustration av en evenemangssida med filter, sidopaneler och eventkort.</desc>
  <rect width="640" height="420" rx="28" fill="#F4EDE1"/>
  <circle cx="548" cy="82" r="56" fill="#87C5B3" fill-opacity=".28"/>
  <circle cx="105" cy="318" r="64" fill="#E86F51" fill-opacity=".18"/>
  <circle cx="512" cy="320" r="48" fill="#21354F" fill-opacity=".12"/>
  <rect x="68" y="58" width="504" height="304" rx="24" fill="#FFFAF4"/>
  <rect x="68" y="58" width="504" height="44" rx="22" fill="#21354F"/>
  <circle cx="99" cy="80" r="8" fill="#87C5B3"/>
  <circle cx="121" cy="80" r="8" fill="#F5EFE5"/>
  <circle cx="143" cy="80" r="8" fill="#E86F51"/>
  <rect x="402" y="72" width="86" height="16" rx="8" fill="#87C5B3"/>
  <rect x="500" y="72" width="44" height="16" rx="8" fill="#E86F51"/>
  <rect x="94" y="134" width="130" height="172" rx="18" fill="#FFFFFF" stroke="#E2D8CA"/>
  <rect x="112" y="154" width="76" height="16" rx="8" fill="#21354F"/>
  <rect x="112" y="188" width="92" height="32" rx="16" fill="#108476"/>
  <rect x="112" y="234" width="92" height="16" rx="8" fill="#D9CEC0"/>
  <rect x="112" y="262" width="70" height="12" rx="6" fill="#D9CEC0"/>
  <rect x="250" y="134" width="168" height="76" rx="18" fill="#FFFFFF" stroke="#E2D8CA"/>
  <rect x="274" y="158" width="112" height="14" rx="7" fill="#21354F"/>
  <rect x="274" y="184" width="68" height="12" rx="6" fill="#87C5B3"/>
  <rect x="250" y="236" width="276" height="84" rx="18" fill="#FFFFFF" stroke="#E2D8CA"/>
  <rect x="274" y="260" width="72" height="20" rx="10" fill="#CFF0EA" stroke="#87C5B3"/>
  <rect x="358" y="260" width="74" height="20" rx="10" fill="#FFE2B5" stroke="#F0B66B"/>
  <rect x="444" y="260" width="58" height="20" rx="10" fill="#FFD3C6" stroke="#E86F51"/>
  <rect x="274" y="294" width="196" height="10" rx="5" fill="#D9CEC0"/>
  <rect x="448" y="134" width="78" height="76" rx="18" fill="#FFFFFF" stroke="#E2D8CA"/>
  <rect x="464" y="154" width="46" height="12" rx="6" fill="#D9CEC0"/>
  <rect x="464" y="180" width="34" height="18" rx="9" fill="#108476"/>
  <path d="M250 343H526" stroke="#21354F" stroke-width="16" stroke-linecap="round"/>
  <path d="M280 343H326" stroke="#87C5B3" stroke-width="8" stroke-linecap="round"/>
  <path d="M348 343H402" stroke="#E86F51" stroke-width="8" stroke-linecap="round"/>
</svg>
